:FULLY-SPECIFIED
:FORCE-ALL-JOINTS-BE-3DOF
:DEGREES
2039
root -3.24418 15.1816 22.204 897.438 -8.89387 174.714
lfemur -14.3078 9.87202 -20.9336
ltibia 54.9394 0 0
lfoot -26.288 21.2725 0
ltoes -38.7858 0 0
rfemur -51.203 -12.0328 13.0487
rtibia 47.4867 0 0
rfoot 12.7974 2.34343 0
rtoes -7.77723 0 0
lowerback 14.2795 -0.220848 -7.05502
upperback -0.4729 -1.32852 2.57234
thorax -8.35135 -0.290765 7.08815
lowerneck -1.65804 -3.764 -6.91372
upperneck 7.85019 -5.07405 0.554714
head 3.1689 -2.7919 1.20031
lclavicle 1.26311e-14 -5.20097e-15 0
lhumerus -20.0961 -32.6844 97.7506
lradius 76.0257 0 0
lwrist 2.03099 0 0
lhand -22.1683 40.4425 0
lfingers 7.12502 0 0
lthumb 4.24714 -641.357 0
rclavicle 1.26311e-14 -5.20097e-15 0
rhumerus 11.2469 8.54773 -70.9129
rradius 97.2797 0 0
rwrist -50.8577 0 0
rhand 72.2448 -415.746 0
rfingers 7.12502 0 0
rthumb 71.4581 379.88 0
2040
root -3.25837 15.1876 22.034 897.225 -9.74799 174.539
lfemur -13.6726 9.3548 -21.1998
ltibia 54.7055 0 0
lfoot -26.1375 20.9312 0
ltoes -39.5146 0 0
rfemur -51.7235 -11.7466 13.0184
rtibia 47.4597 0 0
rfoot 13.1749 2.83244 0
rtoes -7.39327 0 0
lowerback 14.2898 -0.185027 -7.22641
upperback -0.477715 -1.31806 2.50711
thorax -8.36131 -0.281961 7.11428
lowerneck -1.63146 -4.0457 -7.12283
upperneck 7.92363 -5.45235 0.774548
head 3.18285 -2.98231 1.29632
lclavicle 1.27867e-14 -5.55197e-15 0
lhumerus -20.8467 -33.2948 98.3917
lradius 77.2241 0 0
lwrist 3.32247 0 0
lhand -21.8357 39.9705 0
lfingers 7.12502 0 0
lthumb 4.56811 -643.916 0
rclavicle 1.27867e-14 -5.55197e-15 0
rhumerus 13.0312 8.42994 -70.3594
rradius 96.5953 0 0
rwrist -49.9656 0 0
rhand 72.8044 -415.791 0
rfingers 7.12502 0 0
rthumb 71.7852 380.756 0
2041
root -3.2714 15.1931 21.8642 897.041 -10.5378 174.382
lfemur -13.0738 8.86826 -21.4259
ltibia 54.5221 0 0
lfoot -25.9483 20.5995 0
ltoes -40.148 0 0
rfemur -52.1978 -11.4752 13.0007
rtibia 47.4645 0 0
rfoot 13.4727 3.26148 0
rtoes -7.02695 0 0
lowerback 14.295 -0.149036 -7.37763
upperback -0.483665 -1.30335 2.44438
thorax -8.37033 -0.271669 7.13064
lowerneck -1.60728 -4.30995 -7.31702
upperneck 7.97967 -5.80717 0.987372
head 3.19299 -3.16042 1.38838
lclavicle 1.28037e-14 -5.86411e-15 0
lhumerus -21.6354 -33.8186 99.0025
lradius 78.3324 0 0
lwrist 4.54451 0 0
lhand -21.5101 39.5342 0
lfingers 7.12502 0 0
lthumb 4.88234 -646.425 0
rclavicle 1.28037e-14 -5.86411e-15 0
rhumerus 14.707 8.31358 -69.8351
rradius 95.8653 0 0
rwrist -49.0738 0 0
rhand 73.1848 -415.808 0
rfingers 7.12502 0 0
rthumb 71.9969 381.408 0
2042
root -3.28328 15.1982 21.6947 896.887 -11.2604 174.241
lfemur -12.5133 8.41459 -21.6095
ltibia 54.3922 0 0
lfoot -25.7189 20.2785 0
ltoes -40.6807 0 0
rfemur -52.6233 -11.2198 12.9962
rtibia 47.5025 0 0
rfoot 13.6869 3.62752 0
rtoes -6.67925 0 0
lowerback 14.2948 -0.112926 -7.50767
upperback -0.490804 -1.28424 2.38434
thorax -8.37833 -0.25985 7.13681
lowerneck -1.58563 -4.55582 -7.49549
upperneck 8.01743 -6.13724 1.19271
head 3.19912 -3.32558 1.47624
lclavicle 1.26765e-14 -6.13471e-15 0
lhumerus -22.4648 -34.2506 99.5819
lradius 79.3441 0 0
lwrist 5.69187 0 0
lhand -21.1922 39.136 0
lfingers 7.12502 0 0
lthumb 5.18907 -648.889 0
rclavicle 1.26765e-14 -6.13471e-15 0
rhumerus 16.2675 8.19832 -69.3419
rradius 95.0884 0 0
rwrist -48.1833 0 0
rhand 73.3775 -415.797 0
rfingers 7.12502 0 0
rthumb 72.0877 381.824 0
2043
root -3.294 15.2028 21.5257 896.764 -11.9125 174.118
lfemur -11.993 7.99596 -21.7481
ltibia 54.3187 0 0
lfoot -25.448 19.9691 0
ltoes -41.1073 0 0
rfemur -52.9978 -10.9817 13.0051
rtibia 47.5751 0 0
rfoot 13.8138 3.92757 0
rtoes -6.35116 0 0
lowerback 14.2891 -0.0767466 -7.61554
upperback -0.499185 -1.26061 2.32717
thorax -8.38527 -0.246462 7.13237
lowerneck -1.56668 -4.78235 -7.65745
upperneck 8.03605 -6.44127 1.39008
head 3.20105 -3.47711 1.55965
lclavicle 1.23992e-14 -6.36111e-15 0
lhumerus -23.3376 -34.5856 100.129
lradius 80.2529 0 0
lwrist 6.75928 0 0
lhand -20.8828 38.7781 0
lfingers 7.12502 0 0
lthumb 5.48751 -651.313 0
rclavicle 1.23992e-14 -6.36111e-15 0
rhumerus 17.7056 8.08378 -68.8819
rradius 94.263 0 0
rwrist -47.2954 0 0
rhand 73.374 -415.757 0
rfingers 7.12502 0 0
rthumb 72.0524 381.994 0
2044
root -3.30271 15.2068 21.3602 896.676 -12.4914 174.014
lfemur -11.5037 7.60239 -21.8458
ltibia 54.3012 0 0
lfoot -25.1335 19.6655 0
ltoes -41.4358 0 0
rfemur -53.332 -10.7561 13.0276
rtibia 47.6881 0 0
rfoot 13.8551 4.15914 0
rtoes -6.03609 0 0
lowerback 14.2785 -0.0399026 -7.70154
upperback -0.508412 -1.23179 2.27186
thorax -8.39111 -0.231227 7.11629
lowerneck -1.54912 -4.9901 -7.80267
upperneck 8.03413 -6.72005 1.57995
head 3.19843 -3.61541 1.63873
lclavicle 1.19462e-14 -6.56191e-15 0
lhumerus -24.2631 -34.8385 100.631
lradius 81.101 0 0
lwrist 7.78845 0 0
lhand -20.5705 38.3972 0
lfingers 7.12502 0 0
lthumb 5.78875 -653.611 0
rclavicle 1.19462e-14 -6.56191e-15 0
rhumerus 19.0512 7.96957 -68.4401
rradius 93.3677 0 0
rwrist -46.3895 0 0
rhand 73.172 -415.69 0
rfingers 7.12502 0 0
rthumb 71.889 381.913 0
2045
root -3.30909 15.2102 21.1934 896.62 -13.0251 173.923
lfemur -11.0129 7.20474 -21.9143
ltibia 54.3336 0 0
lfoot -24.7629 19.3481 0
ltoes -41.6964 0 0
rfemur -53.6538 -10.5274 13.064
rtibia 47.849 0 0
rfoot 13.8209 4.33535 0
rtoes -5.71302 0 0
lowerback 14.2637 -0.000224457 -7.77142
upperback -0.518446 -1.19624 2.21485
thorax -8.3962 -0.213329 7.08771
lowerneck -1.5308 -5.19015 -7.93861
upperneck 8.01187 -6.98847 1.77172
head 3.19121 -3.74795 1.71742
lclavicle 1.12861e-14 -6.76617e-15 0
lhumerus -25.2852 -35.0415 101.103
lradius 81.9719 0 0
lwrist 8.86825 0 0
lhand -20.2307 37.9184 0
lfingers 7.12502 0 0
lthumb 6.11653 -655.804 0
rclavicle 1.12861e-14 -6.76617e-15 0
rhumerus 20.3997 7.85079 -67.9808
rradius 92.348 0 0
rwrist -45.4074 0 0
rhand 72.7755 -415.599 0
rfingers 7.12502 0 0
rthumb 71.5983 381.594 0
2046
root -3.31323 15.213 21.0254 896.595 -13.5148 173.847
lfemur -10.5218 6.80372 -21.9548
ltibia 54.4133 0 0
lfoot -24.3388 19.0179 0
ltoes -41.8917 0 0
rfemur -53.9627 -10.2956 13.1138
rtibia 48.0554 0 0
rfoot 13.7142 4.45844 0
rtoes -5.38298 0 0
lowerback 14.2449 0.0421316 -7.82574
upperback -0.529265 -1.15426 2.15631
thorax -8.40058 -0.192892 7.04721
lowerneck -1.51185 -5.3826 -8.06552
upperneck 7.97023 -7.24667 1.96513
head 3.1796 -3.8748 1.79566
lclavicle 1.0429e-14 -6.97303e-15 0
lhumerus -26.3974 -35.1963 101.544
lradius 82.8627 0 0
lwrist 9.99428 0 0
lhand -19.8651 37.3493 0
lfingers 7.12502 0 0
lthumb 6.46907 -657.891 0
rclavicle 1.0429e-14 -6.97303e-15 0
rhumerus 21.7487 7.72816 -67.5058
rradius 91.2112 0 0
rwrist -44.3537 0 0
rhand 72.193 -415.484 0
rfingers 7.12502 0 0
rthumb 71.1858 381.045 0
2047
root -3.31522 15.2153 20.8562 896.599 -13.9618 173.783
lfemur -10.0316 6.40006 -21.9687
ltibia 54.5379 0 0
lfoot -23.8636 18.6757 0
ltoes -42.0245 0 0
rfemur -54.2584 -10.0612 13.1765
rtibia 48.3049 0 0
rfoot 13.5378 4.53066 0
rtoes -5.04701 0 0
lowerback 14.2222 0.0870095 -7.86508
upperback -0.540847 -1.10616 2.09639
thorax -8.40428 -0.170038 6.99533
lowerneck -1.49234 -5.56753 -8.18367
upperneck 7.91018 -7.49477 2.15994
head 3.16384 -3.99606 1.87341
lclavicle 9.38498e-15 -7.18164e-15 0
lhumerus -27.5932 -35.3044 101.956
lradius 83.7707 0 0
lwrist 11.1621 0 0
lhand -19.4758 36.6979 0
lfingers 7.12502 0 0
lthumb 6.84456 -659.874 0
rclavicle 9.38498e-15 -7.18164e-15 0
rhumerus 23.096 7.60237 -67.0166
rradius 89.9643 0 0
rwrist -43.2331 0 0
rhand 71.4327 -415.346 0
rfingers 7.12502 0 0
rthumb 70.657 380.277 0
2048
root -3.31516 15.2172 20.6857 896.63 -14.3674 173.732
lfemur -9.54348 5.99448 -21.9572
ltibia 54.7049 0 0
lfoot -23.3398 18.3225 0
ltoes -42.0972 0 0
rfemur -54.5404 -9.82449 13.2517
rtibia 48.5952 0 0
rfoot 13.2948 4.55425 0
rtoes -4.70614 0 0
lowerback 14.1959 0.134253 -7.89001
upperback -0.55317 -1.05224 2.03524
thorax -8.40736 -0.144892 6.93263
lowerneck -1.47239 -5.74504 -8.29332
upperneck 7.83267 -7.73289 2.3559
head 3.14414 -4.11181 1.95061
lclavicle 8.16404e-15 -7.39115e-15 0
lhumerus -28.8661 -35.3675 102.34
lradius 84.6928 0 0
lwrist 12.3674 0 0
lhand -19.0644 35.9718 0
lfingers 7.12502 0 0
lthumb 7.24119 -661.753 0
rclavicle 8.16404e-15 -7.39115e-15 0
rhumerus 24.4394 7.47416 -66.515
rradius 88.6144 0 0
rwrist -42.0504 0 0
rhand 70.5031 -415.185 0
rfingers 7.12502 0 0
rthumb 70.0174 379.302 0
2049
root -3.31312 15.2185 20.5141 896.688 -14.7328 173.693
lfemur -9.05863 5.5877 -21.9216
ltibia 54.9118 0 0
lfoot -22.7701 17.9592 0
ltoes -42.1124 0 0
rfemur -54.8083 -9.58567 13.3389
rtibia 48.9239 0 0
rfoot 12.9881 4.53145 0
rtoes -4.36142 0 0
lowerback 14.1661 0.183706 -7.90108
upperback -0.566212 -0.992807 1.97303
thorax -8.40984 -0.117576 6.85969
lowerneck -1.45211 -5.91523 -8.39475
upperneck 7.73865 -7.96116 2.55275
head 3.12074 -4.22214 2.02721
lclavicle 6.77623e-15 -7.6007e-15 0
lhumerus -30.2095 -35.3873 102.697
lradius 85.6263 0 0
lwrist 13.6058 0 0
lhand -18.633 35.179 0
lfingers 7.12502 0 0
lthumb 7.65718 -663.528 0
rclavicle 6.77623e-15 -7.6007e-15 0
rhumerus 25.7764 7.34423 -66.0025
rradius 87.1686 0 0
rwrist -40.8102 0 0
rhand 69.4125 -415.003 0
rfingers 7.12502 0 0
rthumb 69.2726 378.129 0
2050
root -3.30922 15.2193 20.3413 896.772 -15.0592 173.666
lfemur -8.57821 5.18044 -21.8631
ltibia 55.1561 0 0
lfoot -22.157 17.5867 0
ltoes -42.0729 0 0
rfemur -55.0616 -9.34505 13.4376
rtibia 49.2887 0 0
rfoot 12.6207 4.46452 0
rtoes -4.01387 0 0
lowerback 14.1329 0.235213 -7.89886
upperback -0.579951 -0.928164 1.90991
thorax -8.41178 -0.0882125 6.77704
lowerneck -1.43158 -6.07819 -8.4882
upperneck 7.62909 -8.17969 2.75025
head 3.09386 -4.32713 2.10316
lclavicle 5.23158e-15 -7.80943e-15 0
lhumerus -31.6171 -35.3653 103.027
lradius 86.5683 0 0
lwrist 14.8727 0 0
lhand -18.1834 34.3272 0
lfingers 7.12502 0 0
lthumb 8.09072 -665.2 0
rclavicle 5.23158e-15 -7.80943e-15 0
rhumerus 27.1048 7.21329 -65.4809
rradius 85.6341 0 0
rwrist -39.5174 0 0
rhand 68.1693 -414.801 0
rfingers 7.12502 0 0
rthumb 68.4279 376.769 0
2051
root -3.30353 15.2197 20.1674 896.879 -15.3479 173.651
lfemur -8.1034 4.77342 -21.7831
ltibia 55.4354 0 0
lfoot -21.5029 17.206 0
ltoes -41.981 0 0
rfemur -55.2999 -9.10294 13.5474
rtibia 49.6871 0 0
rfoot 12.1955 4.35569 0
rtoes -3.66453 0 0
lowerback 14.0966 0.288617 -7.88393
upperback -0.594364 -0.858616 1.84604
thorax -8.41321 -0.0569258 6.68525
lowerneck -1.41091 -6.23401 -8.57396
upperneck 7.50494 -8.38862 2.94814
head 3.06372 -4.42688 2.1784
lclavicle 3.54013e-15 -8.0165e-15 0
lhumerus -33.0821 -35.3032 103.333
lradius 87.5159 0 0
lwrist 16.1639 0 0
lhand -17.7175 33.4241 0
lfingers 7.12502 0 0
lthumb 8.54002 -666.769 0
rclavicle 3.54013e-15 -8.0165e-15 0
rhumerus 28.4224 7.08205 -64.9518
rradius 84.018 0 0
rwrist -38.1765 0 0
rhand 66.7819 -414.579 0
rfingers 7.12502 0 0
rthumb 67.4891 375.232 0
